<svg width="395" height="167" viewBox="0 0 395 167" fill="none" xmlns="http://www.w3.org/2000/svg">
<g filter="url(#filter0_g_2685_16050)">
<path d="M362.975 4.26305C371.02 1.90913 379.451 6.52322 381.805 14.5689C383.584 20.6487 381.383 26.9471 376.73 30.6783C382.66 31.313 387.909 35.4328 389.688 41.5126C392.041 49.5583 387.427 57.9889 379.382 60.3428C373.301 62.122 367 59.9196 363.27 55.2644C362.636 61.1957 358.516 66.4455 352.436 68.2245C344.39 70.5781 335.96 65.9639 333.606 57.9183C331.828 51.8391 334.028 45.5408 338.68 41.8095C332.75 41.1739 327.503 37.0554 325.724 30.9765C323.37 22.9308 327.984 14.5002 336.03 12.1463C342.11 10.3674 348.409 12.5683 352.141 17.2222C352.775 11.2913 356.894 6.04193 362.975 4.26305ZM355.388 28.3223C354.959 32.3354 352.934 36.0352 349.786 38.5603C353.799 38.9903 357.499 41.0165 360.023 44.1659C360.453 40.1528 362.477 36.452 365.626 33.9269C361.613 33.4971 357.913 31.4714 355.388 28.3223Z" fill="#ED9699"/>
</g>
<g filter="url(#filter1_g_2685_16050)">
<path d="M382.625 76.1989C384.325 77.6915 384.867 80.0122 384.178 82.0282C386.087 81.0838 388.459 81.3212 390.159 82.8138C392.409 84.7889 392.632 88.214 390.657 90.464C389.165 92.164 386.845 92.7052 384.829 92.0169C385.774 93.9264 385.537 96.2973 384.044 97.9977C382.069 100.248 378.644 100.471 376.394 98.4957C374.694 97.0035 374.151 94.684 374.839 92.6686C372.93 93.6123 370.559 93.3766 368.859 91.8842C366.609 89.9092 366.386 86.4841 368.361 84.2341C369.854 82.5336 372.175 81.9913 374.191 82.6803C373.245 80.7703 373.481 78.398 374.975 76.6968C376.95 74.4469 380.375 74.2239 382.625 76.1989ZM381.454 85.1312C380.161 85.7708 378.658 85.8682 377.293 85.4014C377.933 86.6936 378.032 88.1971 377.566 89.5619C378.858 88.9236 380.361 88.8257 381.724 89.2912C381.085 87.9987 380.987 86.4955 381.454 85.1312Z" fill="#ED9699"/>
</g>
<g filter="url(#filter2_g_2685_16050)">
<path d="M250.701 103.4C253.556 105.159 254.445 108.899 252.687 111.754C251.357 113.911 248.897 114.945 246.541 114.562C247.943 116.493 248.127 119.156 246.798 121.314C245.039 124.169 241.299 125.059 238.444 123.3C236.287 121.971 235.253 119.511 235.635 117.156C233.703 118.557 231.042 118.742 228.884 117.413C226.029 115.654 225.139 111.914 226.898 109.059C228.227 106.901 230.688 105.867 233.044 106.25C231.641 104.318 231.456 101.654 232.786 99.4958C234.544 96.6407 238.285 95.7523 241.14 97.5109C243.298 98.8403 244.331 101.301 243.948 103.657C245.88 102.255 248.543 102.071 250.701 103.4ZM241.524 107.592C240.216 108.541 238.574 108.933 236.978 108.673C237.928 109.98 238.319 111.621 238.061 113.215C239.368 112.268 241.009 111.878 242.603 112.136C241.655 110.829 241.265 109.187 241.524 107.592Z" fill="#ED9699"/>
</g>
<g filter="url(#filter3_g_2685_16050)">
<path d="M176.021 88.2366C178.57 89.8067 179.364 93.1461 177.794 95.6952C176.607 97.622 174.409 98.5443 172.306 98.2025C173.558 99.9269 173.722 102.305 172.535 104.232C170.965 106.781 167.626 107.575 165.077 106.005C163.151 104.819 162.228 102.622 162.568 100.52C160.844 101.77 158.467 101.935 156.541 100.748C153.992 99.1783 153.198 95.839 154.768 93.2899C155.955 91.3632 158.153 90.4396 160.256 90.7813C159.003 89.0567 158.838 86.6784 160.025 84.7511C161.596 82.202 164.935 81.4084 167.484 82.9784C169.411 84.1651 170.333 86.3621 169.992 88.4651C171.716 87.2139 174.094 87.05 176.021 88.2366ZM167.827 91.9798C166.659 92.8273 165.193 93.1758 163.769 92.9443C164.617 94.1109 164.966 95.5767 164.736 97.0001C165.903 96.1543 167.368 95.8062 168.791 96.0371C167.944 94.8696 167.595 93.4035 167.827 91.9798Z" fill="#ED9699"/>
</g>
<g filter="url(#filter4_g_2685_16050)">
<path d="M137.811 89.9558C139.851 91.2119 140.486 93.8836 139.23 95.9229C138.28 97.464 136.523 98.2021 134.841 97.9291C135.842 99.3087 135.973 101.211 135.023 102.752C133.767 104.791 131.096 105.426 129.056 104.17C127.516 103.221 126.777 101.464 127.05 99.7824C125.67 100.783 123.769 100.914 122.228 99.9652C120.188 98.709 119.553 96.0374 120.809 93.9981C121.759 92.4568 123.517 91.7183 125.199 91.9916C124.197 90.612 124.066 88.7096 125.015 87.1678C126.271 85.1284 128.943 84.4934 130.982 85.7495C132.523 86.6989 133.262 88.4561 132.989 90.1382C134.368 89.1375 136.27 89.0067 137.811 89.9558ZM131.256 92.9511C130.322 93.6288 129.149 93.907 128.01 93.7218C128.688 94.6551 128.967 95.8277 128.783 96.9664C129.716 96.2895 130.889 96.0114 132.027 96.196C131.35 95.2623 131.071 94.0897 131.256 92.9511Z" fill="#ED9699"/>
</g>
<g filter="url(#filter5_g_2685_16050)">
<path d="M321.151 64.0738C324.755 68.0797 324.43 74.2492 320.424 77.8536C317.396 80.5784 313.132 81.0553 309.674 79.3963C310.962 83.0108 310.038 87.2025 307.009 89.9283C303.003 93.5326 296.834 93.2077 293.229 89.2021C290.504 86.1735 290.027 81.9087 291.687 78.4502C288.073 79.7368 283.882 78.8137 281.157 75.785C277.553 71.779 277.879 65.6097 281.885 62.0053C284.912 59.2812 289.175 58.8025 292.633 60.4605C291.349 56.8478 292.272 52.6599 295.299 49.9362C299.305 46.3319 305.475 46.658 309.079 50.6638C311.802 53.6895 312.281 57.9488 310.627 61.4055C314.24 60.1223 318.427 61.047 321.151 64.0738ZM305.097 66.3837C302.652 67.2528 299.944 67.1086 297.604 65.9863C298.474 68.4326 298.331 71.1417 297.208 73.4827C299.654 72.612 302.364 72.755 304.706 73.8782C303.835 71.433 303.977 68.7248 305.097 66.3837Z" fill="#ED9699"/>
</g>
<defs>
<filter id="filter0_g_2685_16050" x="323.202" y="1.74114" width="69.0075" height="69.005" filterUnits="userSpaceOnUse" color-interpolation-filters="sRGB">
<feFlood flood-opacity="0" result="BackgroundImageFix"/>
<feBlend mode="normal" in="SourceGraphic" in2="BackgroundImageFix" result="shape"/>
<feTurbulence type="fractalNoise" baseFrequency="0.14680474996566772 0.14680474996566772" numOctaves="3" seed="5819" />
<feDisplacementMap in="shape" scale="3.8145904541015625" xChannelSelector="R" yChannelSelector="G" result="displacedImage" width="100%" height="100%" />
<feMerge result="effect1_texture_2685_16050">
<feMergeNode in="displacedImage"/>
</feMerge>
</filter>
<filter id="filter1_g_2685_16050" x="364.971" y="72.8085" width="29.0768" height="29.0778" filterUnits="userSpaceOnUse" color-interpolation-filters="sRGB">
<feFlood flood-opacity="0" result="BackgroundImageFix"/>
<feBlend mode="normal" in="SourceGraphic" in2="BackgroundImageFix" result="shape"/>
<feTurbulence type="fractalNoise" baseFrequency="0.13701778650283813 0.13701778650283813" numOctaves="3" seed="5819" />
<feDisplacementMap in="shape" scale="4.0870609283447266" xChannelSelector="R" yChannelSelector="G" result="displacedImage" width="100%" height="100%" />
<feMerge result="effect1_texture_2685_16050">
<feMergeNode in="displacedImage"/>
</feMerge>
</filter>
<filter id="filter2_g_2685_16050" x="223.952" y="94.5644" width="31.6812" height="31.6818" filterUnits="userSpaceOnUse" color-interpolation-filters="sRGB">
<feFlood flood-opacity="0" result="BackgroundImageFix"/>
<feBlend mode="normal" in="SourceGraphic" in2="BackgroundImageFix" result="shape"/>
<feTurbulence type="fractalNoise" baseFrequency="0.13701778650283813 0.13701778650283813" numOctaves="3" seed="5819" />
<feDisplacementMap in="shape" scale="4.0870609283447266" xChannelSelector="R" yChannelSelector="G" result="displacedImage" width="100%" height="100%" />
<feMerge result="effect1_texture_2685_16050">
<feMergeNode in="displacedImage"/>
</feMerge>
</filter>
<filter id="filter3_g_2685_16050" x="151.919" y="80.1288" width="28.7241" height="28.7252" filterUnits="userSpaceOnUse" color-interpolation-filters="sRGB">
<feFlood flood-opacity="0" result="BackgroundImageFix"/>
<feBlend mode="normal" in="SourceGraphic" in2="BackgroundImageFix" result="shape"/>
<feTurbulence type="fractalNoise" baseFrequency="0.13701778650283813 0.13701778650283813" numOctaves="3" seed="5819" />
<feDisplacementMap in="shape" scale="4.0870609283447266" xChannelSelector="R" yChannelSelector="G" result="displacedImage" width="100%" height="100%" />
<feMerge result="effect1_texture_2685_16050">
<feMergeNode in="displacedImage"/>
</feMerge>
</filter>
<filter id="filter4_g_2685_16050" x="118.121" y="83.0612" width="23.7969" height="23.7973" filterUnits="userSpaceOnUse" color-interpolation-filters="sRGB">
<feFlood flood-opacity="0" result="BackgroundImageFix"/>
<feBlend mode="normal" in="SourceGraphic" in2="BackgroundImageFix" result="shape"/>
<feTurbulence type="fractalNoise" baseFrequency="0.13701780140399933 0.13701780140399933" numOctaves="3" seed="5819" />
<feDisplacementMap in="shape" scale="4.0870604515075684" xChannelSelector="R" yChannelSelector="G" result="displacedImage" width="100%" height="100%" />
<feMerge result="effect1_texture_2685_16050">
<feMergeNode in="displacedImage"/>
</feMerge>
</filter>
<filter id="filter5_g_2685_16050" x="276.61" y="45.3891" width="49.0885" height="49.0871" filterUnits="userSpaceOnUse" color-interpolation-filters="sRGB">
<feFlood flood-opacity="0" result="BackgroundImageFix"/>
<feBlend mode="normal" in="SourceGraphic" in2="BackgroundImageFix" result="shape"/>
<feTurbulence type="fractalNoise" baseFrequency="0.13701780140399933 0.13701780140399933" numOctaves="3" seed="5819" />
<feDisplacementMap in="shape" scale="4.0870604515075684" xChannelSelector="R" yChannelSelector="G" result="displacedImage" width="100%" height="100%" />
<feMerge result="effect1_texture_2685_16050">
<feMergeNode in="displacedImage"/>
</feMerge>
</filter>
</defs>
</svg>
