<svg width="169" height="375" viewBox="0 0 169 375" fill="none" xmlns="http://www.w3.org/2000/svg">
<g filter="url(#filter0_gn_2343_9554)">
<path d="M10.126 2.2041H157.896C162.271 2.20427 165.818 5.75104 165.818 10.126V364.47C165.818 368.845 162.271 372.391 157.896 372.392H10.126C5.75093 372.392 2.2041 368.845 2.2041 364.47V10.126C2.2041 5.75094 5.75094 2.2041 10.126 2.2041ZM85.6865 97.4932C79.2923 97.4933 74.1084 102.677 74.1084 109.071V201.07C74.1084 207.465 79.2923 212.648 85.6865 212.648H135.758C142.152 212.648 147.336 207.465 147.336 201.07V109.071C147.336 102.677 142.152 97.4932 135.758 97.4932H85.6865Z" fill="#F3EAE3" stroke="#2B2B23" stroke-width="3.65617"/>
<rect x="70.4526" y="93.9131" width="80.4358" height="122.177" rx="15.2569" stroke="#AEB032" stroke-width="4.26554"/>
<g clip-path="url(#clip0_2343_9554)">
<rect x="129.561" y="161.857" width="11.5244" height="45.3292" fill="#FFFCF3"/>
<rect x="126.845" y="159.724" width="17.6715" height="9.7498" fill="#FFA141"/>
<path d="M134.694 172.685C135.049 172.071 135.936 172.071 136.291 172.685L138.753 176.949C139.108 177.564 138.664 178.332 137.955 178.332H133.031C132.321 178.332 131.878 177.564 132.232 176.949L134.694 172.685Z" fill="#FD4C4C"/>
<circle cx="135.498" cy="184.26" r="2.68902" fill="#FFFCF3" stroke="#FD4C4C" stroke-width="1.22927"/>
<circle cx="135.493" cy="193.199" r="2.68902" fill="#FD4C4C" stroke="#FD4C4C" stroke-width="1.22927"/>
</g>
</g>
<defs>
<filter id="filter0_gn_2343_9554" x="0.000193536" y="0.000193536" width="168.022" height="374.595" filterUnits="userSpaceOnUse" color-interpolation-filters="sRGB">
<feFlood flood-opacity="0" result="BackgroundImageFix"/>
<feBlend mode="normal" in="SourceGraphic" in2="BackgroundImageFix" result="shape"/>
<feTurbulence type="fractalNoise" baseFrequency="0.78267943859100342 0.78267943859100342" numOctaves="3" seed="5210" />
<feDisplacementMap in="shape" scale="0.75156605243682861" xChannelSelector="R" yChannelSelector="G" result="displacedImage" width="100%" height="100%" />
<feMerge result="effect1_texture_2343_9554">
<feMergeNode in="displacedImage"/>
</feMerge>
<feTurbulence type="fractalNoise" baseFrequency="3.5481469631195068 3.5481469631195068" stitchTiles="stitch" numOctaves="3" result="noise" seed="3550" />
<feColorMatrix in="noise" type="luminanceToAlpha" result="alphaNoise" />
<feComponentTransfer in="alphaNoise" result="coloredNoise1">
<feFuncA type="discrete" tableValues="0 0 0 0 0 0 0 0 0 0 0 0 0 0 0 0 0 0 0 0 0 0 0 0 0 1 0 0 0 0 0 0 0 0 0 0 0 0 0 0 0 0 0 0 0 0 0 0 0 0 0 0 0 0 0 0 0 0 0 0 0 0 0 0 0 0 0 0 0 0 0 0 0 0 0 0 0 0 0 0 0 0 0 0 0 0 0 0 0 0 0 0 0 0 0 0 0 0 0 0 "/>
</feComponentTransfer>
<feComposite operator="in" in2="effect1_texture_2343_9554" in="coloredNoise1" result="noise1Clipped" />
<feFlood flood-color="#F1EBE5" result="color1Flood" />
<feComposite operator="in" in2="noise1Clipped" in="color1Flood" result="color1" />
<feMerge result="effect2_noise_2343_9554">
<feMergeNode in="effect1_texture_2343_9554" />
<feMergeNode in="color1" />
</feMerge>
</filter>
<clipPath id="clip0_2343_9554">
<rect x="129.561" y="161.857" width="11.5779" height="39.9132" rx="1.21872" fill="white"/>
</clipPath>
</defs>
</svg>
